HIERARCHY
ROOT Hips
{
  OFFSET 5.84602e-005 68.8428 3.50346
  CHANNELS 6 Xposition Yposition Zposition Zrotation Xrotation Yrotation
  JOINT Spine
  {
    OFFSET 0 8.597 -4.6522
    CHANNELS 3 Zrotation Xrotation Yrotation
    JOINT Spine1
    {
      OFFSET 0 7.8454 0.4098
      CHANNELS 3 Zrotation Xrotation Yrotation
      JOINT Spine2
      {
        OFFSET 0 9.7078 -2.1609
        CHANNELS 3 Zrotation Xrotation Yrotation
        JOINT Neck
        {
          OFFSET 0 21.8761 -0.4549
          CHANNELS 3 Zrotation Xrotation Yrotation
          JOINT Head
          {
            OFFSET 0 12.3537 3.3602
            CHANNELS 3 Zrotation Xrotation Yrotation
            End Site
            {
              OFFSET 0.0001 18.9506 0.5657
            }
          }
        }
        JOINT LeftShoulder
        {
          OFFSET 2.2086 21.1115 7.2329
          CHANNELS 3 Zrotation Xrotation Yrotation
          JOINT LeftArm
          {
            OFFSET 13.1193 3.0282 -4.8998
            CHANNELS 3 Zrotation Xrotation Yrotation
            JOINT LeftForeArm
            {
              OFFSET 27.4081 -0.0973053 -0.2375
              CHANNELS 3 Zrotation Xrotation Yrotation
              JOINT LeftHand
              {
                OFFSET 22.8641 0.0662994 -0.1369
                CHANNELS 3 Zrotation Xrotation Yrotation
                JOINT LeftHandIndex1
                {
                  OFFSET 8.8614 0.775009 2.4612
                  CHANNELS 3 Zrotation Xrotation Yrotation
                  JOINT LeftHandIndex2
                  {
                    OFFSET 3.3146 -0.808304 0.5841
                    CHANNELS 3 Zrotation Xrotation Yrotation
                    JOINT LeftHandIndex3
                    {
                      OFFSET 2.2628 -0.552002 0.3989
                      CHANNELS 3 Zrotation Xrotation Yrotation
                      End Site
                      {
                        OFFSET 1.6102 -0.4807 0.2612
                      }
                    }
                  }
                }
                JOINT LeftHandMiddle1
                {
                  OFFSET 8.9937 0.895004 0.2143
                  CHANNELS 3 Zrotation Xrotation Yrotation
                  JOINT LeftHandMiddle2
                  {
                    OFFSET 4.0984 0.0113983 -0.0242
                    CHANNELS 3 Zrotation Xrotation Yrotation
                    JOINT LeftHandMiddle3
                    {
                      OFFSET 2.2716 0.00689697 -0.0138001
                      CHANNELS 3 Zrotation Xrotation Yrotation
                      End Site
                      {
                        OFFSET 2.0404 -0.1441 0.0027
                      }
                    }
                  }
                }
                JOINT LeftHandRing1
                {
                  OFFSET 8.5234 0.597198 -2.0164
                  CHANNELS 3 Zrotation Xrotation Yrotation
                  JOINT LeftHandRing2
                  {
                    OFFSET 3.7188 -0.188293 -0.2328
                    CHANNELS 3 Zrotation Xrotation Yrotation
                    JOINT LeftHandRing3
                    {
                      OFFSET 2.1191 -0.106598 -0.1332
                      CHANNELS 3 Zrotation Xrotation Yrotation
                      End Site
                      {
                        OFFSET 1.8737 -0.2304 -0.0886
                      }
                    }
                  }
                }
                JOINT LeftHandPinky1
                {
                  OFFSET 7.9094 -0.601089 -3.4825
                  CHANNELS 3 Zrotation Xrotation Yrotation
                  JOINT LeftHandPinky2
                  {
                    OFFSET 2.2874 -0.477005 -0.6314
                    CHANNELS 3 Zrotation Xrotation Yrotation
                    JOINT LeftHandPinky3
                    {
                      OFFSET 1.6774 -0.349396 -0.4633
                      CHANNELS 3 Zrotation Xrotation Yrotation
                      End Site
                      {
                        OFFSET 1.4888 -0.4091 -0.3416
                      }
                    }
                  }
                }
                JOINT LeftHandThumb1
                {
                  OFFSET 1.833 -1.3875 1.3896
                  CHANNELS 3 Zrotation Xrotation Yrotation
                  JOINT LeftHandThumb2
                  {
                    OFFSET 3.4129 -1.121 2.5732
                    CHANNELS 3 Zrotation Xrotation Yrotation
                    JOINT LeftHandThumb3
                    {
                      OFFSET 2.2474 -0.804199 1.6192
                      CHANNELS 3 Zrotation Xrotation Yrotation
                      End Site
                      {
                        OFFSET 1.6527 -0.5689 1.1317
                      }
                    }
                  }
                }
              }
            }
          }
        }
        JOINT RightShoulder
        {
          OFFSET -2.2086 21.1115 7.2329
          CHANNELS 3 Zrotation Xrotation Yrotation
          JOINT RightArm
          {
            OFFSET -13.1216 3.0287 -4.9007
            CHANNELS 3 Zrotation Xrotation Yrotation
            JOINT RightForeArm
            {
              OFFSET -27.4081 -0.0973053 -0.2375
              CHANNELS 3 Zrotation Xrotation Yrotation
              JOINT RightHand
              {
                OFFSET -22.8641 0.0664063 -0.1369
                CHANNELS 3 Zrotation Xrotation Yrotation
                JOINT RightHandIndex1
                {
                  OFFSET -8.8614 0.774994 2.4612
                  CHANNELS 3 Zrotation Xrotation Yrotation
                  JOINT RightHandIndex2
                  {
                    OFFSET -3.3146 -0.808304 0.5841
                    CHANNELS 3 Zrotation Xrotation Yrotation
                    JOINT RightHandIndex3
                    {
                      OFFSET -2.2628 -0.552002 0.3989
                      CHANNELS 3 Zrotation Xrotation Yrotation
                      End Site
                      {
                        OFFSET -1.6102 -0.4807 0.2612
                      }
                    }
                  }
                }
                JOINT RightHandMiddle1
                {
                  OFFSET -8.9937 0.894989 0.2143
                  CHANNELS 3 Zrotation Xrotation Yrotation
                  JOINT RightHandMiddle2
                  {
                    OFFSET -4.0984 0.0113983 -0.0242
                    CHANNELS 3 Zrotation Xrotation Yrotation
                    JOINT RightHandMiddle3
                    {
                      OFFSET -2.2716 0.00691223 -0.0138001
                      CHANNELS 3 Zrotation Xrotation Yrotation
                      End Site
                      {
                        OFFSET -2.0404 -0.1441 0.0027
                      }
                    }
                  }
                }
                JOINT RightHandRing1
                {
                  OFFSET -8.5234 0.597198 -2.0164
                  CHANNELS 3 Zrotation Xrotation Yrotation
                  JOINT RightHandRing2
                  {
                    OFFSET -3.7188 -0.188309 -0.2328
                    CHANNELS 3 Zrotation Xrotation Yrotation
                    JOINT RightHandRing3
                    {
                      OFFSET -2.1191 -0.106598 -0.1332
                      CHANNELS 3 Zrotation Xrotation Yrotation
                      End Site
                      {
                        OFFSET -1.8737 -0.2304 -0.0886
                      }
                    }
                  }
                }
                JOINT RightHandPinky1
                {
                  OFFSET -7.9094 -0.601105 -3.4825
                  CHANNELS 3 Zrotation Xrotation Yrotation
                  JOINT RightHandPinky2
                  {
                    OFFSET -2.2874 -0.477005 -0.6314
                    CHANNELS 3 Zrotation Xrotation Yrotation
                    JOINT RightHandPinky3
                    {
                      OFFSET -1.6774 -0.349396 -0.4633
                      CHANNELS 3 Zrotation Xrotation Yrotation
                      End Site
                      {
                        OFFSET -1.4888 -0.4091 -0.3416
                      }
                    }
                  }
                }
                JOINT RightHandThumb1
                {
                  OFFSET -1.833 -1.38751 1.3896
                  CHANNELS 3 Zrotation Xrotation Yrotation
                  JOINT RightHandThumb2
                  {
                    OFFSET -3.41299 -1.12099 2.5732
                    CHANNELS 3 Zrotation Xrotation Yrotation
                    JOINT RightHandThumb3
                    {
                      OFFSET -2.24741 -0.804108 1.6192
                      CHANNELS 3 Zrotation Xrotation Yrotation
                      End Site
                      {
                        OFFSET -1.6527 -0.5689 1.1317
                      }
                    }
                  }
                }
              }
            }
          }
        }
      }
    }
  }
  JOINT RightUpLeg
  {
    OFFSET -9.1966 3.8861 -0.7581
    CHANNELS 3 Zrotation Xrotation Yrotation
    JOINT RightLeg
    {
      OFFSET -0.7359 -41.0265 0
      CHANNELS 3 Zrotation Xrotation Yrotation
      JOINT RightFoot
      {
        OFFSET 0 -40.2855 0
        CHANNELS 3 Zrotation Xrotation Yrotation
        JOINT RightToeBase
        {
          OFFSET 0 -5.6122 11.7359
          CHANNELS 3 Zrotation Xrotation Yrotation
          End Site
          {
            OFFSET 0 0 7.8731
          }
        }
      }
    }
  }
  JOINT LeftUpLeg
  {
    OFFSET 9.1965 3.8864 -0.7581
    CHANNELS 3 Zrotation Xrotation Yrotation
    JOINT LeftLeg
    {
      OFFSET 0.7359 -41.0268 0
      CHANNELS 3 Zrotation Xrotation Yrotation
      JOINT LeftFoot
      {
        OFFSET 0 -40.2855 0
        CHANNELS 3 Zrotation Xrotation Yrotation
        JOINT LeftToeBase
        {
          OFFSET 0 -5.6122 11.7359
          CHANNELS 3 Zrotation Xrotation Yrotation
          End Site
          {
            OFFSET 0 0 7.8731
          }
        }
      }
    }
  }
}
MOTION
Frames:	6
Frame Time:	0.0333333
5.84602e-005 68.8428 3.50346 0 0 -0 0 0 -0 0 0 -0 0 0 -0 0 0 -0 0 0 -0 0 0 -0 0 0 -0 0 0 -0 0 0 -0 0 0 -0 0 0 -0 0 0 -0 0 0 -0 -0.0146107 -8.87603e-005 -2.63497e-007 2.99804e-018 -2.42657e-020 -1.42182e-022 0 0 -0 -0.0187562 -0.001176 5.858e-005 5.06224e-018 3.88251e-019 1.21329e-020 0 0 -0 -0.012269 -0.00324817 0.000675346 -1.74678e-018 3.88251e-019 -0 0 0 -0 0 0 -0 0 0 -0 0 0 -0 0 0 -0 0 0 -0 0 0 -0 0 0 -0 0 0 -0 0 0 -0 0 0 -0 0.0149955 -9.10982e-005 2.64101e-007 -9.69331e-018 1.21329e-020 -4.7394e-023 0 0 -0 0.0189956 -0.00119102 -5.96516e-005 -5.41541e-019 0 2.42657e-020 0 0 -0 0.0122698 -0.00324857 -0.000673756 -2.00796e-019 0 -1.94126e-019 0 0 -0 0 0 -0 0 0 -0 3.39842 1.33031 -0.0637918 -5.65207e-008 0.834868 -0.000436188 -3.39935 -2.16518 -0.0642563 -8.89002e-024 -1.18485e-023 -1.48106e-024 -3.39844 1.35642 0.0640283 -3.18788e-007 0.782166 -0.000588827 3.39931 -2.13858 0.0634662 1.1399e-023 0 -0 
0.000153942 4.50151 7.63954 -180 -81.997 -180 -0.0393469 0.932514 -0.146747 -0.0763198 1.86513 -0.292912 -0.0763198 1.86513 -0.292912 1.03026e-005 39.9977 -1.74714e-005 1.11857e-007 8.99857 -2.24588e-008 -23.6186 7.4321 -4.194 -56.3362 -10.3598 -30.9882 -7.79426 34.547 0.369216 -43.7505 -60.2398 10.8489 -4.19164e-006 6.93801e-008 7.36205e-007 -4.19164e-006 6.93801e-008 7.36205e-007 -4.19164e-006 6.93801e-008 7.36205e-007 -4.19164e-006 6.93801e-008 7.36205e-007 -0.0146166 -9.07051e-005 1.0585e-006 -4.19193e-006 6.92844e-008 7.36218e-007 -4.19164e-006 6.93801e-008 7.36205e-007 -0.0187592 -0.0011807 6.15893e-005 -4.19201e-006 6.92383e-008 7.36261e-007 -4.19164e-006 6.93801e-008 7.36205e-007 -0.0122572 -0.00323874 0.000679974 -4.19186e-006 6.92618e-008 7.36345e-007 -4.19164e-006 6.93801e-008 7.36205e-007 -4.19164e-006 6.93801e-008 7.36205e-007 -4.19164e-006 6.93801e-008 7.36205e-007 26.0621 7.28176 5.72454 54.569 -11.3294 30.2026 6.76997 34.515 -0.370286 43.6051 -59.1719 -12.34 2.46626e-006 -1.10578e-006 1.72391e-006 9.54166e-015 0 1.59028e-015 1.90833e-014 3.18055e-015 -1.59028e-015 2.46626e-006 -1.10578e-006 1.72391e-006 0.0150003 -9.60426e-005 -1.78097e-006 3.18055e-015 0 -1.59028e-015 2.46626e-006 -1.10578e-006 1.72391e-006 0.0190258 -0.00119371 -5.75142e-005 3.18055e-015 1.59028e-015 -4.77083e-015 2.46626e-006 -1.10578e-006 1.72391e-006 0.0122654 -0.00325148 -0.000679337 -5.29669e-031 -6.36111e-015 -4.77083e-015 2.46626e-006 -1.10578e-006 1.72391e-006 9.54166e-015 0 1.59028e-015 1.90833e-014 3.18055e-015 -1.59028e-015 -21.9387 -18.6202 -48.3434 -66.9343 52.6393 54.3433 3.13031 14.4405 -10.907 -5.61472e-007 3.53712e-006 1.15014e-006 21.9197 -18.6252 48.3209 66.8875 52.6565 -54.2916 -3.13967 14.4519 10.8927 -1.36804e-006 -8.01113e-007 -3.3675e-006 
0.000156787 4.60895 7.69946 -180 -82.7732 -180 -0.0380921 0.689298 -0.147229 -0.0744205 1.37868 -0.294031 -0.0744206 1.37869 -0.294031 2.47923e-005 39.9978 -5.21482e-005 0.0362903 8.82154 0.0380615 -23.0776 8.08244 -3.53329 -56.8037 -10.0802 -31.1519 -8.3021 34.5576 0.368639 -43.2093 -60.0776 10.989 -4.18955e-006 7.70677e-008 7.35821e-007 -4.18955e-006 7.70677e-008 7.35821e-007 -4.18955e-006 7.70677e-008 7.35821e-007 -4.18955e-006 7.70677e-008 7.35821e-007 -0.0146271 -9.4815e-005 -4.44341e-006 -4.18984e-006 7.69717e-008 7.35834e-007 -4.18955e-006 7.70677e-008 7.35821e-007 -0.0187721 -0.00117616 6.08771e-005 -4.57073e-006 1.47176e-006 -1.53852e-007 -4.18955e-006 7.70677e-008 7.35821e-007 -0.012286 -0.00325168 0.000677504 -4.18978e-006 7.69487e-008 7.35961e-007 -4.18955e-006 7.70677e-008 7.35821e-007 -4.18955e-006 7.70677e-008 7.35821e-007 -4.18955e-006 7.70677e-008 7.35821e-007 25.395 7.91984 4.96945 55.1342 -11.0017 30.4162 7.33158 34.5246 -0.369743 43.0862 -59.0642 -12.3808 6.36111e-015 4.77083e-015 -0 -3.84182e-007 -1.4091e-006 -8.95912e-007 3.84182e-007 1.4091e-006 8.95912e-007 6.36111e-015 4.77083e-015 -0 0.0149853 -9.28667e-005 -4.72686e-006 3.53113e-031 6.36111e-015 -3.18055e-015 6.36111e-015 4.77083e-015 -0 0.0190167 -0.00119154 -6.05808e-005 6.36111e-015 0 -3.18055e-015 6.36111e-015 4.77083e-015 -0 0.012281 -0.00324901 -0.000676496 1.44322e-006 2.11243e-006 5.70558e-007 6.36111e-015 4.77083e-015 -0 -3.84182e-007 -1.4091e-006 -8.95912e-007 3.84182e-007 1.4091e-006 8.95912e-007 -21.9302 -19.2273 -48.4251 -66.9223 52.6369 54.3346 3.34056 14.362 -11.0367 3.18055e-015 -9.54166e-015 -0 21.9109 -19.2325 48.4028 66.8756 52.6541 -54.283 -3.34938 14.3734 11.0224 2.26072e-006 -5.23219e-007 -3.76796e-006 
0.000161561 4.71552 7.75821 -180 -83.5498 -180 -0.0369039 0.445634 -0.147596 -0.0726628 0.891389 -0.294917 -0.0726629 0.891371 -0.294917 4.61701e-005 39.9979 -0.000108051 0.0727009 8.64446 0.0762378 -22.5425 8.73989 -2.87674 -57.2702 -9.79912 -31.3132 -8.8101 34.5685 0.367994 -42.6713 -59.9147 11.1254 -4.57889e-006 1.47114e-006 -1.68814e-007 6.36111e-015 -6.36111e-015 4.77083e-015 -4.1876e-006 8.44069e-008 7.35571e-007 -4.57889e-006 1.47114e-006 -1.68814e-007 -0.0146233 -9.65546e-005 -2.10842e-006 -4.18789e-006 8.4311e-008 7.35585e-007 -4.57889e-006 1.47114e-006 -1.68814e-007 -0.018749 -0.0011877 6.30236e-005 -4.57752e-006 1.47126e-006 -1.6853e-007 -4.57889e-006 1.47114e-006 -1.68814e-007 -0.0122565 -0.00324911 0.000675901 -4.18782e-006 8.4288e-008 7.35712e-007 -4.57889e-006 1.47114e-006 -1.68814e-007 6.36111e-015 -6.36111e-015 4.77083e-015 -4.1876e-006 8.44069e-008 7.35571e-007 24.7341 8.56778 4.21926 55.6979 -10.6717 30.6264 7.89336 34.5347 -0.369129 42.5689 -58.9564 -12.4196 -4.92993e-006 2.20784e-006 -3.44296e-006 4.18645e-006 8.1273e-008 -7.43484e-007 -2.46496e-006 1.10392e-006 -1.72148e-006 -4.92993e-006 2.20784e-006 -3.44296e-006 0.0150001 -8.43245e-005 3.37012e-006 -2.46512e-006 1.1037e-006 -1.72162e-006 -4.92993e-006 2.20784e-006 -3.44296e-006 0.018982 -0.00119438 -6.51767e-005 -2.8552e-006 -3.02311e-007 -2.62744e-006 -4.92993e-006 2.20784e-006 -3.44296e-006 0.0122787 -0.00325254 -0.000676945 -2.46515e-006 1.10375e-006 -1.72152e-006 -4.92993e-006 2.20784e-006 -3.44296e-006 4.18645e-006 8.1273e-008 -7.43484e-007 -2.46496e-006 1.10392e-006 -1.72148e-006 -21.9227 -19.8349 -48.5069 -66.9108 52.6345 54.3264 3.55061 14.2828 -11.1662 -1.4256e-006 -4.33482e-007 1.53063e-006 21.9031 -19.8401 48.4849 66.864 52.6517 -54.2746 -3.55889 14.2944 11.1518 -4.38244e-006 4.2793e-007 -2.61359e-006 
0.000162695 4.82125 7.81578 -180 -84.327 -180 -0.0357208 0.201682 -0.147979 -0.0709212 0.403454 -0.295834 -0.0709211 0.403456 -0.295835 -1.14556e-005 39.9982 2.99967e-005 0.109232 8.46731 0.11453 -22.0134 9.40378 -2.22437 -57.7357 -9.51671 -31.4721 -9.31817 34.5798 0.367334 -42.1367 -59.7512 11.258 -3.993e-007 1.37947e-006 -9.18257e-007 -2.46061e-006 -1.10057e-006 -1.72517e-006 6.36111e-015 1.74931e-014 1.59028e-014 -3.993e-007 1.37947e-006 -9.18257e-007 -0.0145931 -9.01422e-005 -2.93268e-006 -3.18055e-015 -1.59028e-015 3.18055e-015 -3.993e-007 1.37947e-006 -9.18257e-007 -0.0187553 -0.00116551 5.49627e-005 1.27222e-014 3.18055e-015 1.59028e-015 -3.993e-007 1.37947e-006 -9.18257e-007 -0.0122543 -0.00323934 0.000672788 -3.98178e-007 1.37988e-006 -9.1816e-007 -3.993e-007 1.37947e-006 -9.18257e-007 -2.46061e-006 -1.10057e-006 -1.72517e-006 6.36111e-015 1.74931e-014 1.59028e-014 24.0796 9.22499 3.47443 56.2599 -10.3396 30.8332 8.45529 34.5453 -0.368457 42.0532 -58.8483 -12.4565 3.98575e-007 1.40307e-006 9.1555e-007 3.18055e-015 -3.18055e-015 1.59028e-015 1.40893e-006 2.12299e-006 5.46192e-007 3.98575e-007 1.40307e-006 9.1555e-007 0.014977 -9.6049e-005 -2.27989e-006 3.18055e-015 -3.18055e-015 -1.59028e-015 3.98575e-007 1.40307e-006 9.1555e-007 0.0189882 -0.00119838 -6.78175e-005 -9.54166e-015 1.59028e-015 -1.59028e-015 3.98575e-007 1.40307e-006 9.1555e-007 0.0122674 -0.00324986 -0.000672792 0 0 -1.59028e-015 3.98575e-007 1.40307e-006 9.1555e-007 3.18055e-015 -3.18055e-015 1.59028e-015 1.40893e-006 2.12299e-006 5.46192e-007 -21.916 -20.4427 -48.589 -66.899 52.6321 54.3179 3.76042 14.2033 -11.2953 -1.23094e-006 3.01402e-006 -7.04749e-007 21.8962 -20.4479 48.5672 66.8526 52.6493 -54.2664 -3.76819 14.2148 11.2809 -5.31045e-007 -8.9346e-007 -5.60117e-006 
0.000166499 4.92616 7.87213 -180 -85.1047 -180 -0.0344672 -0.0426061 -0.148057 -0.0690444 -0.0851186 -0.29614 -0.0690444 -0.0851315 -0.29614 0.000800018 39.9979 -0.00171555 0.145885 8.29008 0.152937 -21.4904 10.0749 -1.57757 -58.2001 -9.23296 -31.6285 -9.82639 34.5916 0.366626 -41.6053 -59.587 11.3871 6.36111e-015 0 -1.59028e-015 9.54166e-015 1.59028e-015 -1.59028e-015 3.18055e-015 -1.59028e-015 -0 6.36111e-015 0 -1.59028e-015 -0.0146209 -8.00811e-005 2.02468e-006 3.18055e-015 1.59028e-015 1.59028e-015 6.36111e-015 0 -1.59028e-015 -0.0187519 -0.00117797 5.91082e-005 9.54166e-015 0 -0 6.36111e-015 0 -1.59028e-015 -0.0122629 -0.00325084 0.000674384 -1.32417e-031 -1.59028e-015 -4.77083e-015 6.36111e-015 0 -1.59028e-015 9.54166e-015 1.59028e-015 -1.59028e-015 3.18055e-015 -1.59028e-015 -0 23.4315 9.89088 2.73342 56.8204 -10.0053 31.0365 9.01736 34.5565 -0.367735 41.5392 -58.7401 -12.4913 -1.39529e-006 -2.12623e-006 -5.34552e-007 -4.04552e-007 -1.40123e-006 -9.24456e-007 3.18055e-015 1.59028e-015 1.59028e-015 -1.39529e-006 -2.12623e-006 -5.34552e-007 0.0150112 -9.78982e-005 -2.00065e-006 1.32417e-031 -1.59028e-015 4.77083e-015 -1.39529e-006 -2.12623e-006 -5.34552e-007 0.018982 -0.00119368 -6.38969e-005 -3.18055e-015 -3.18055e-015 -0 -1.39529e-006 -2.12623e-006 -5.34552e-007 0.0122727 -0.00325814 -0.000680672 -1.59028e-014 0 -0 -1.39529e-006 -2.12623e-006 -5.34552e-007 -4.04552e-007 -1.40123e-006 -9.24456e-007 3.18055e-015 1.59028e-015 1.59028e-015 -21.9103 -21.0509 -48.6712 -66.8879 52.6298 54.31 3.97008 14.1231 -11.4241 6.36111e-015 0 -0 21.8903 -21.0562 48.6497 66.8413 52.647 -54.2585 -3.97726 14.1348 11.4097 1.12631e-009 7.94806e-007 -6.40478e-006 
